<svg width="831" height="83" viewBox="0 0 831 83" fill="none" xmlns="http://www.w3.org/2000/svg">
<path d="M53.2 30.4304L67.8832 67.9896L73.7352 82.7792L79.8 67.9896L106.294 4.256H94.3768L74.0544 53.2L53.2 0L47.1352 15.2152L32.2392 53.2L11.9168 4.256H0L32.6648 82.7792L38.4104 67.9896L53.2 30.4304Z" fill="#FCF7FA"/>
<path d="M165.762 14.6832V4.25598H123.521V78.5232H165.762V68.096H135.438V43.092H163.102V32.6648H135.438V20.9608L126.819 14.6832H165.762Z" fill="#FCF7FA"/>
<path d="M255.569 78.5232L223.862 12.4488L217.797 0L180.131 78.5232H192.048L198.432 65.3296L191.729 60.4352H234.927L243.652 78.5232H255.569ZM205.774 50.008L217.797 24.7912L229.927 50.008H205.774Z" fill="#FCF7FA"/>
<path d="M303.677 4.25598H256.755V14.6832H274.205V78.5232H286.228V20.3224L278.461 14.6832H303.677V4.25598Z" fill="#FCF7FA"/>
<path d="M376.904 4.25598H364.987V33.4096H333.067V4.25598H321.151V78.5232H333.067V49.476L325.407 43.8368H364.987V78.5232H376.904V4.25598Z" fill="#FCF7FA"/>
<path d="M442.707 14.6832V4.25598H400.466V78.5232H442.707V68.096H412.383V43.092H440.047V32.6648H412.383V20.9608L403.764 14.6832H442.707Z" fill="#FCF7FA"/>
<path d="M513.681 78.5232L490.486 47.4544C499.636 45.6456 507.935 40.432 507.935 26.3872C507.935 6.06478 490.699 4.25598 478.356 4.25598H463.886V78.5232H475.803V48.5184H477.186L499.636 78.5232H513.681ZM468.142 14.6832H481.442C487.613 14.6832 496.019 15.6408 496.019 26.3872C496.019 37.0272 487.613 38.0912 481.442 38.0912H475.803V20.3224L468.142 14.6832Z" fill="#FCF7FA"/>
<path d="M575.779 30.4304L590.462 67.9896L596.314 82.7792L602.379 67.9896L628.873 4.256H616.956L596.634 53.2L575.779 0L569.714 15.2152L554.818 53.2L534.496 4.256H522.579L555.244 82.7792L560.99 67.9896L575.779 30.4304Z" fill="#FCF7FA"/>
<path d="M704.859 78.5232L673.152 12.4488L667.087 0L629.422 78.5232H641.339L647.723 65.3296L641.019 60.4352H684.218L692.943 78.5232H704.859ZM655.064 50.008L667.087 24.7912L679.217 50.008H655.064Z" fill="#FCF7FA"/>
<path d="M759.686 4.25598L738.406 54.5832L717.126 4.25598H705.209L732.448 68.628L738.406 82.7792L744.364 68.628L771.603 4.25598H759.686Z" fill="#FCF7FA"/>
<path d="M830.97 14.6832V4.25598H788.729V78.5232H830.97V68.096H800.646V43.092H828.31V32.6648H800.646V20.9608L792.027 14.6832H830.97Z" fill="#FCF7FA"/>
</svg>
